<svg xmlns="http://www.w3.org/2000/svg" width="21" height="14" viewBox="0 0 21 14">
  <path fill="#000127" fill-rule="evenodd" d="M523.536585,411 C522.685266,411 522,411.693726 522,412.555556 L522,423.444444 C522,424.306274 522.685266,425 523.536585,425 L541.463415,425 C542.314734,425 543,424.306274 543,423.444444 L543,412.555556 C543,411.693726 542.314734,411 541.463415,411 L523.536585,411 Z M524.477823,414.0023 C524.647834,413.986841 524.794421,414.050743 524.901326,414.150723 L531.767028,420.574198 C532.194597,420.975137 532.788127,420.975137 533.216712,420.574198 L540.098573,414.150723 C540.299125,413.963133 540.650352,413.976532 540.835624,414.179584 C541.020897,414.382637 541.007674,414.738235 540.807118,414.925815 L536.914017,418.562107 L540.798778,422.058288 C541.030889,422.23248 541.069586,422.615909 540.87615,422.834414 C540.683742,423.051895 540.303001,423.056017 540.106521,422.841628 L536.148266,419.279481 L533.924888,421.349168 C533.115541,422.104686 531.866428,422.106744 531.058097,421.349168 L528.850982,419.279481 L524.892726,422.841628 C524.696244,423.056017 524.315511,423.051895 524.123097,422.834414 C523.930688,422.616933 523.969375,422.23249 524.200469,422.058288 L528.085231,418.562107 L524.192129,414.925815 C524.039423,414.791823 523.976307,414.564032 524.036369,414.369223 C524.096433,414.174418 524.277643,414.023932 524.477177,414.002295 L524.477823,414.0023 Z" transform="translate(-522 -411)"/>
</svg>
