<svg xmlns="http://www.w3.org/2000/svg" width="15" height="24" viewBox="0 0 15 24">
  <path fill="#ffffff" fill-rule="evenodd" d="M13.2423669,9.73789997e-05 L1.75763306,9.73789997e-05 C0.784433493,9.73789997e-05 0,0.785411893 0,1.75970449 L0,22.2403929 C0,23.2146855 0.784433493,24 1.75763306,24 L13.2423669,23.9987718 C14.2155665,23.9987718 15,23.2134573 15,22.2391647 L15,1.72769193 C15,0.785314514 14.2155665,0 13.2423669,0 L13.2423669,9.73789997e-05 Z M7.91666667,22.3448276 C7.24084487,22.3448276 6.66666667,21.7746092 6.66666667,21.1034483 C6.66666667,20.4322873 7.24084487,19.862069 7.91666667,19.862069 C8.59248847,19.862069 9.16666667,20.4322873 9.16666667,21.1034483 C9.16666667,21.8073954 8.62678642,22.3448276 7.91666667,22.3448276 Z M13.3333333,19.0344828 L1.66666667,19.0344828 L1.66666667,1.65517241 L13.3320619,1.65517241 L13.3333333,19.0344828 Z"/>
</svg>
