<svg xmlns="http://www.w3.org/2000/svg" x="0px" y="0px" viewBox="0 0 512 512">
  <path fill="#000127" fill-rule="evenodd" d="M506.9,153.6c0,0-5-35.3-20.4-50.8c-19.5-20.4-41.3-20.5-51.3-21.7c-71.6-5.2-179.1-5.2-179.1-5.2h-0.2
	c0,0-107.5,0-179.1,5.2c-10,1.2-31.8,1.3-51.3,21.7c-15.4,15.5-20.3,50.8-20.3,50.8S0.1,195,0.1,236.5v38.8
	c0,41.4,5.1,82.9,5.1,82.9s5,35.3,20.3,50.8C45,429.4,70.6,428.7,82,430.9c41,3.9,174.1,5.1,174.1,5.1s107.6-0.2,179.2-5.3
	c10-1.2,31.8-1.3,51.3-21.7c15.4-15.5,20.4-50.8,20.4-50.8s5.1-41.4,5.1-82.9v-38.8C512,195.1,506.9,153.6,506.9,153.6L506.9,153.6z
	M203.1,322.4V178.5l138.3,72.2L203.1,322.4L203.1,322.4z"/>
</svg>
