<svg xmlns="http://www.w3.org/2000/svg" width="17" height="15" viewBox="0 0 17 15">
  <path fill="#FFFFFF" fill-rule="evenodd" d="M532.520578,486.403094 L531.917352,486.32769 C529.655251,486.026077 527.694764,485.045834 526.03589,483.38696 L525.206454,482.557523 L524.980244,483.16075 C524.527823,484.51801 524.829437,485.950674 525.734277,486.930917 C526.2621,487.458741 526.111294,487.534144 525.206454,487.232531 C524.90484,487.157127 524.67863,487.081724 524.603227,487.081724 C524.527823,487.157127 524.829437,488.363581 525.055647,488.740598 C525.35726,489.419228 526.03589,490.022455 526.714521,490.399471 L527.317747,490.701085 L526.714521,490.701085 C526.03589,490.701085 526.03589,490.701085 526.03589,491.002698 C526.337504,491.832135 527.242344,492.661572 528.297991,493.113992 L529.052024,493.415605 L528.373394,493.792622 C527.393151,494.395849 526.2621,494.697462 525.055647,494.697462 C524.527823,494.697462 524,494.772865 524,494.772865 C524,494.848269 525.508067,495.602302 526.412907,495.903916 C529.052024,496.733352 532.143562,496.431739 534.481065,494.999075 C536.139939,494.018832 537.798813,491.982942 538.552846,490.022455 C539.005266,488.966808 539.382283,487.157127 539.382283,486.176884 C539.382283,485.573657 539.457686,485.498254 540.060913,484.819624 C540.43793,484.442607 540.814947,483.914783 540.965753,483.83938 C541.041157,483.61317 541.041157,483.61317 540.43793,483.83938 C539.382283,484.216397 539.231476,484.140993 539.7593,483.61317 C540.136316,483.236153 540.588737,482.48212 540.588737,482.25591 C540.588737,482.180506 540.43793,482.25591 540.21172,482.406716 C539.98551,482.48212 539.53309,482.70833 539.156073,482.859136 L538.477443,483.085347 L538.025023,482.632926 C537.723409,482.406716 537.195586,482.105103 536.969376,482.105103 C536.290746,481.954296 535.385906,481.954296 534.782679,482.180506 C533.274612,482.632926 532.294368,484.140993 532.445175,485.799867 L532.520578,486.403094 Z" transform="translate(-524 -482)"/>
</svg>
