<svg xmlns="http://www.w3.org/2000/svg" width="45" height="45" viewBox="0 0 45 45">
  <g fill="none" fill-rule="evenodd">
    <circle cx="22.5" cy="22.5" r="22.5" fill="#DEFF00"/>
    <g fill="#000000" transform="translate(13.571 12.857)">
      <path d="M16.3477019,8.29012422 C16.3498039,5.82677226 15.2279793,3.49681159 13.2998344,1.96399586 C11.3716087,0.430049689 8.84942029,-0.138747412 6.44913043,0.417426501 C4.04989027,0.974650104 2.03559006,2.59588199 0.978902692,4.82154658 C-0.0766811594,7.04729193 -0.0598592133,9.63262319 1.02621408,11.8436998 C2.11334244,14.0547226 4.14890559,15.6486894 6.55646253,16.173265 C8.96305052,16.6968447 11.4778911,16.0933594 13.3850961,14.5341884 L17.3518455,18.4936708 L18.4925888,17.3529275 L14.534183,13.3851014 C15.7106696,11.9478882 16.3520029,10.1469441 16.3478041,8.29007039 L16.3477019,8.29012422 Z M1.84826087,8.29012422 L1.84931325,8.29012422 C1.84826087,6.1600352 2.90067143,4.16780538 4.65952029,2.96712215 C6.41847681,1.76751553 8.65776046,1.51413665 10.640866,2.29109524 C12.6227066,3.06910352 14.0935369,4.77549482 14.5688578,6.85186128 C15.0430213,8.92830849 14.4616172,11.1047184 13.0138909,12.6660642 L12.6658785,13.0140766 C11.4347273,14.1569193 9.80507101,14.7730331 8.12502961,14.7299151 C6.44598406,14.6878602 4.84892195,13.9907992 3.67676874,12.7880435 C2.50343126,11.5842112 1.84842505,9.97030021 1.84947474,8.2902588 L1.84826087,8.29012422 Z"/>
      <polygon points="11.28 7.483 9.097 7.483 9.097 5.302 7.483 5.302 7.483 7.483 5.302 7.483 5.302 9.098 7.483 9.098 7.483 11.28 9.097 11.28 9.097 9.098 11.28 9.098"/>
    </g>
  </g>
</svg>
