<svg xmlns="http://www.w3.org/2000/svg" width="90" height="90" viewBox="0 0 90 90">
  <path fill="#0157F9" fill-rule="evenodd" d="M687,2489.6016 C687,2492.1016 685,2494.1016 682.5,2494.1016 C680,2494.1016 678,2492.1016 678,2489.6016 L678,2477.6016 C678,2475.1016 680,2473.1016 682.5,2473.1016 C685,2473.1016 687,2475.1016 687,2477.6016 L687,2489.6016 Z M731,2477.6016 C731,2475.1016 729,2473.1016 726.5,2473.1016 C724,2473.1016 722,2475.1016 722,2477.6016 L722,2489.6016 C722,2492.1016 724,2494.1016 726.5,2494.1016 C729,2494.1016 731,2492.1016 731,2489.6016 L731,2477.6016 Z M750,2488.9996 L750,2558.1016 C750,2560.8008 747.8008,2563 745,2563 L665,2563 C662.1992,2563 660,2560.8008 660,2558.1016 L660,2488.9996 C660,2486.3004 662.1992,2484.1012 665,2484.1012 L675,2484.1012 L675,2489.6012 C675,2493.902 678.1992,2497.3004 682.5,2497.3004 C686.8008,2497.3004 690,2493.8004 690,2489.6012 L690,2484.1012 L719,2484.1012 L719,2489.6012 C719,2493.902 722.1992,2497.3004 726.5,2497.3004 C730.8008,2497.3004 734,2493.8004 734,2489.6012 L734,2484.1012 L744.898,2484.1012 C747.6011,2484.1012 749.9996,2486.3004 749.9996,2488.9996 L750,2488.9996 Z M742,2506.9996 C742,2505.9996 741.10156,2505.1012 740,2505.1012 L670,2505.1012 C668.8984,2505.1012 668,2505.90198 668,2506.9996 L668,2553.1986 C668,2554.1986 668.89844,2555.097 670,2555.097 L740,2555.097 C741.1016,2555.097 742,2554.29622 742,2553.1986 L742,2506.9996 Z" transform="translate(-660 -2473)"/>
</svg>
