<svg xmlns="http://www.w3.org/2000/svg" x="0px" y="0px" viewBox="0 0 512 512">
  <path fill="#000127" fill-rule="evenodd" d="M256.2,170.7c-47.1,0-85.3,38.2-85.3,85.3c0,47.1,38.2,85.3,85.3,85.3c47.1,0,85.3-38.2,85.3-85.3
  C341.4,208.9,303.2,170.7,256.2,170.7z"/>
  <path fill="#000127" fill-rule="evenodd" d="M510.3,150.6c-1.2-27.2-5.6-45.9-11.9-62.1c-6.3-17-15-31.3-29.3-45.5c-14.2-14.2-28.5-23-45.3-29.5
  c-16.3-6.3-34.9-10.7-62.1-11.9C334.4,0.3,325.7,0,256.2,0S178,0.3,150.7,1.5c-27.2,1.2-45.9,5.6-62.1,11.9
  C71.7,20,57.3,28.7,43.2,43c-14.3,14.2-23,28.5-29.6,45.3c-6.3,16.3-10.7,34.9-11.9,62.1C0.5,177.8,0.2,186.5,0.2,256
  s0.3,78.2,1.5,105.5c1.2,27.2,5.6,45.9,11.9,62.1c6.6,16.9,15.3,31.2,29.6,45.4c14.2,14.2,28.5,23,45.3,29.5
  c16.3,6.3,34.9,10.7,62.1,11.9c27.3,1.2,36,1.5,105.5,1.5s78.2-0.3,105.5-1.5c27.2-1.2,45.9-5.6,62.1-11.9
  c16.8-6.5,31.1-15.3,45.3-29.5s23-28.5,29.5-45.3c6.3-16.3,10.7-34.9,11.9-62.1c1.2-27.3,1.5-36,1.5-105.5S511.6,177.9,510.3,150.6z
  M256.2,387.5c-72.6,0-131.5-58.9-131.5-131.5s58.9-131.5,131.5-131.5S387.7,183.4,387.7,256S328.8,387.5,256.2,387.5z M392.8,150
  c-17,0-30.7-13.7-30.7-30.7s13.7-30.7,30.7-30.7s30.7,13.7,30.7,30.7C423.6,136.3,409.8,150,392.8,150z"/>
</svg>
