<svg xmlns="http://www.w3.org/2000/svg" width="129" height="19" viewBox="0 0 129 19" xmlns:xlink="http://www.w3.org/1999/xlink">
  <defs>
    <polygon id="a" points="10.469 11.814 .211 11.814 .211 .049 10.469 .049 10.469 11.814"/>
  </defs>
  <g fill="none" fill-rule="evenodd" transform="translate(1)">
    <g transform="translate(0 1)">
      <path fill="#000127" d="M14.8837127,5.25905296 L14.8837127,8.06949508 C14.8837127,9.3135738 14.6005244,10.4308865 14.1478127,11.4198831 L7.84947006,5.56329149 L1.53586378,11.4508826 C1.07514145,10.4541361 0.786215724,9.32652718 0.786215724,8.06949508 L0.786215724,5.25905296 L0.786215724,0.862540574 L14.8837127,0.862540574 L14.8837127,5.25905296 Z M7.83323219,17.001575 C7.41083123,16.9878467 5.47668512,16.1323695 3.74129047,14.4701289 L7.84947006,10.3557125 L11.9411953,14.4568434 C10.2013623,16.1278303 8.25682394,16.9877359 7.83323219,17.001575 L7.83323219,17.001575 Z M-2.16504853e-05,-2.21425418e-05 L15.6700584,-2.21425418e-05 L15.6700584,8.01103877 C15.6700584,14.5139712 8.72414967,17.9105264 7.83301569,17.9393117 C6.94220647,17.9105264 -2.16504853e-05,14.5139712 -2.16504853e-05,8.01103877 L-2.16504853e-05,-2.21425418e-05 Z M4.53006095,9.81340846 C3.84623037,9.81340846 3.2943595,10.3794825 3.2943595,11.0765298 C3.2943595,11.7775626 3.84623037,12.3416439 4.53006095,12.3416439 C5.21194298,12.3416439 5.76630366,11.7775626 5.76630366,11.0765298 C5.76630366,10.3794825 5.21194298,9.81340846 4.53006095,9.81340846 Z M6.62116225,8.05963058 C6.62116225,8.75767421 7.17465691,9.324634 7.85664719,9.324634 C8.53874573,9.324634 9.09310641,8.75767421 9.09310641,8.05963058 C9.09310641,7.36346907 8.53874573,6.79639857 7.85664719,6.79639857 C7.17465691,6.79639857 6.62116225,7.36346907 6.62116225,8.05963058 Z M11.2380092,12.3415221 C11.919783,12.3415221 12.4742519,11.7775516 12.4742519,11.0765187 C12.4742519,10.3795822 11.919783,9.8135081 11.2380092,9.8135081 C10.5542868,9.8135081 10.0023077,10.3795822 10.0023077,11.0765187 C10.0023077,11.7775516 10.5542868,12.3415221 11.2380092,12.3415221 Z"/>
      <path stroke="#000127" stroke-width="2" d="M14.73501,4.42050301 L0.931906421,4.42050301" stroke-linecap="square"/>
    </g>
    <g transform="translate(22)">
      <path fill="#000127" d="M63.3380481,0.607031083 L63.3380481,0.0733684303 L68.6079857,0.0733684303 L68.6079857,0.607031083 C67.7643213,0.607031083 67.1796073,0.810719118 66.8526577,1.21809519 C66.525708,1.62547126 66.3624309,2.3652662 66.3624309,3.43829477 L66.3624309,18.0549482 L65.8405766,18.0549482 L53.4702579,2.43207588 L53.4702579,15.0607341 C53.4702579,15.9488139 53.6453954,16.5855427 53.9960656,16.9713278 C54.3467359,17.357113 54.9342173,17.5481724 55.7593006,17.5457281 L55.7593006,18.0671695 L50.4656423,18.0671695 L50.4656423,17.5335068 C51.306144,17.5335068 51.8758349,17.3070057 52.1735291,16.8531888 C52.4716186,16.3997792 52.620268,15.5996926 52.620268,14.4537437 L52.620268,3.93529358 C52.620268,2.79993647 52.4202238,1.98518433 52.0193448,1.49103716 C51.6184659,0.996889983 50.9598225,0.703579212 50.042624,0.611104844 L50.042624,0.0733684303 L54.5179199,0.0733684303 L65.4452325,14.0708102 L65.4452325,3.56458136 C65.4452325,2.46181433 65.2934203,1.69350306 64.9905867,1.2588328 C64.6873577,0.824162529 64.1370386,0.607031083 63.3380481,0.607031083"/>
      <g transform="translate(68.395 6.595)">
        <mask id="b" fill="white">
          <use xlink:href="#a"/>
        </mask>
        <path fill="#000127" d="M2.36819058,4.15169175 L8.23905133,4.15169175 L8.23905133,3.93578243 C8.28253919,3.06684927 7.98484504,2.21665541 7.41278204,1.57707498 C6.87471864,1.00226735 6.12791352,0.68573614 5.35303897,0.705290191 C4.55483912,0.674736986 3.78549939,1.01204437 3.25376149,1.62596011 C2.68683797,2.33846086 2.37412074,3.2297997 2.36819058,4.15169175 M10.4687924,8.60797859 L10.4687924,9.42273073 C9.93389174,10.1727101 9.25231841,10.7984397 8.46835094,11.2604042 C7.7096855,11.6457819 6.8707652,11.8343971 6.02512404,11.8103619 C4.47893304,11.8661724 2.97583455,11.2787361 1.85424317,10.1808576 C0.76269795,9.10090363 0.166914304,7.59564905 0.213564914,6.03784296 C0.177193252,4.45966806 0.745302808,2.93037829 1.79494155,1.78076302 C2.77183696,0.657219815 4.17372735,0.0253795292 5.63768677,0.0494147174 C6.84941661,0.035563931 8.02003067,0.502009532 8.90718296,1.35301814 C9.79275387,2.1335507 10.2991897,3.27705533 10.2908875,4.47759261 L10.2908875,4.70531583 L2.38400434,4.70531583 L2.38400434,4.86052611 C2.35988835,5.95147923 2.54372338,7.03632171 2.92562584,8.05435451 C3.24506392,8.90291886 3.79340627,9.6394548 4.50700248,10.1767838 C5.13283228,10.6635982 5.89307909,10.9320591 6.67704656,10.9426508 C7.30801584,10.9613901 7.93186892,10.8049577 8.48416471,10.4904634 C9.22622569,9.95965239 9.89356663,9.3261826 10.4687924,8.60797859" mask="url(#b)"/>
      </g>
      <path fill="#000127" d="M83.9712574 6.9987209L83.9712574 7.52016227C83.2145687 7.5417532 82.8366197 7.76214365 82.8366197 8.1801115 82.8658751 8.51456725 82.9516648 8.84128286 83.0896399 9.14559279L85.5249599 15.3702991 88.0551625 8.68525783C87.9069085 8.33409966 87.6870971 8.0200127 87.4103562 7.76458791 87.1328246 7.58982357 86.8106191 7.50468198 86.4852509 7.52016227L86.4852509 6.9987209 91.6883754 6.9987209 91.6883754 7.52016227C90.76327 7.5417532 90.3007174 7.83261971 90.3007174 8.39194706 90.3113917 8.64044646 90.3663445 8.8848721 90.4628085 9.1130027L92.866501 15.3743729 95.096242 9.54482134C95.2484495 9.19040416 95.3393787 8.81113703 95.3646807 8.42453714 95.3646807 7.82976808 94.9116163 7.5230139 94.0050921 7.50386722L94.0050921 6.9987209 98.1953449 6.9987209 98.1953449 7.52016227C97.4418189 7.52016227 96.9239181 7.63952345 96.6420377 7.87865321 96.2142753 8.3622086 95.8920698 8.93416461 95.6967698 9.55704262L92.3288329 18.2993331 91.8148855 18.2993331 88.3753913 9.54074758 84.9991522 18.2993331 84.504972 18.2993331 80.6978078 8.7300692C80.3815324 7.91531705 79.7224937 7.50794098 78.721087 7.50794098L78.721087 6.9987209 83.9712574 6.9987209zM105.011355 6.64426298L105.011355 10.0580744 104.402525 10.0580744C104.341247 9.29342956 104.025762 8.57400342 103.509047 8.0211941 103.035425 7.52541742 102.385084 7.25125332 101.710231 7.2634746 101.246492 7.23862466 100.788289 7.38283579 100.417456 7.67085067 100.094064 7.93849675 99.9122059 8.3479097 99.927229 8.77483983 99.924857 9.21562073 100.087739 9.6401066 100.381875 9.96030419 100.96738 10.4825603 101.635906 10.896047 102.358596 11.1824324 103.676278 11.7959408 104.540895 12.3829697 104.952053 12.942297 105.382583 13.5268817 105.605953 14.2454931 105.584604 14.9791774 105.592511 15.8904777 105.22998 16.7638919 104.584383 17.38677 103.94946 18.0520151 103.077727 18.4198757 102.172784 18.4052101 101.515722 18.3559176 100.874869 18.1730058 100.286992 17.8674737 100.022112 17.730188 99.7378592 17.6364915 99.4449092 17.590458 99.2638415 17.5880137 99.0906808 17.6670447 98.9704962 17.8063673 98.8396372 17.9546522 98.7613591 18.1444895 98.7491034 18.3441037L98.2193423 18.3441037 98.2193423 14.5473587 98.7411965 14.5473587C98.8843111 15.4611033 99.3247245 16.297039 99.9904841 16.9182875 100.597337 17.488614 101.391188 17.8018862 102.212318 17.794146 102.714801 17.8067747 103.200679 17.6063457 103.556488 17.2401146 103.91388 16.8828458 104.10997 16.3882912 104.097715 15.8754047 104.104831 15.3739248 103.924949 14.8883325 103.596023 14.5188424 103.258399 14.1220581 102.533733 13.6800551 101.42163 13.1907964 100.17511 12.6286175 99.352794 12.1014728 98.9546824 11.6101773 98.5561755 11.1111416 98.3458524 10.4805234 98.3616662 9.83401761 98.356922 8.97649098 98.7111504 8.15847983 99.3342128 7.58937546 99.9541124 6.97342284 100.785917 6.6353007 101.646976 6.64833674 102.112692 6.65933589 102.571686 6.76321679 102.999053 6.95386879 103.26591 7.07811849 103.55293 7.15144618 103.84509 7.16977811 104.146737 7.16081583 104.407269 6.94898028 104.485547 6.64833674L105.011355 6.64426298zM4.30533742 8.77483983C5.00035245 9.02578349 5.73648327 9.13251602 6.47182341 9.0885194 9.06528109 9.0885194 10.7138662 7.64233435 10.7138662 5.1899304 10.7138662 3.27118911 9.67806453.708793625 6.47182341.708793625L4.30533742.708793625 4.30533742 8.77483983zM4.30533742 14.6247602C4.30533742 16.8571811 4.82323827 17.4763927 6.28205821 17.4763927L6.28205821 18.0100553.0000395344158 18.0100553.0000395344158 17.488614C1.22165298 17.488614 1.97676033 17.0812379 1.97676033 14.6899404L1.97676033 3.39747569C1.97676033 1.19764491 1.45885948.545843197.0000395344158.545843197L.0000395344158-.0000407376071 6.38089425-.0000407376071C11.204093-.0000407376071 13.1570931 2.6397562 13.1570931 5.12475023 13.1570931 8.11081683 10.9589796 9.78105872 6.98972426 9.78105872 6.09189767 9.77983659 5.19486178 9.71750805 4.30533742 9.59366573L4.30533742 14.6247602zM19.4430652 10.6937441C19.5339944 8.24948765 17.9170368 7.23512123 16.5451926 7.23512123 14.7424232 7.23512123 13.674994 8.62019987 13.5524373 10.6937441L19.4430652 10.6937441zM13.5524373 11.2274067C13.4931357 16.2299849 16.3910083 17.4847032 17.8577352 17.4847032 19.324462 17.4847032 20.1151503 16.9506331 21.6728063 15.1585858L21.6728063 15.9733379C20.3760775 17.70876 19.1109762 18.3687092 17.2133242 18.3687092 13.8252248 18.3687092 11.3819979 15.948488 11.3819979 12.5798953 11.3819979 9.21089517 13.7698766 6.59146704 16.81798 6.59146704 19.3205086 6.59146704 21.6411788 8.669085 21.4869945 11.2473681L13.5524373 11.2274067zM33.2129418 15.5985927C33.2129418 17.0447778 33.5173568 17.4847439 35.0433853 17.4847439L35.0433853 18.0179992 29.275314 18.0179992 29.275314 17.4888177C30.7420408 17.4888177 31.137385 17.142548 31.137385 16.1033317L31.137385 10.2864087C31.22357 8.97058403 30.2589303 7.83237529 28.982364 7.7435673 28.8969696 7.73745666 28.81118 7.73623453 28.7257856 7.73990092 27.6583564 7.73990092 26.7095304 8.43284761 25.6421012 9.91162275L25.6421012 15.3500933C25.6421012 17.0488515 25.855587 17.4888177 27.4725446 17.4888177L27.4725446 18.0220729 21.763775 18.0220729 21.763775 17.4888177C23.1988743 17.4888177 23.5665444 17.3625311 23.5665444 15.3500933L23.5665444 9.08872309C23.5665444 7.73623453 23.2305018 7.45921881 21.763775 7.45921881L21.763775 6.91700126 25.1202469 6.59150778 25.6381477 6.59150778 25.6381477 8.82392864C26.9190628 7.31256342 28.1723038 6.59150778 29.544148 6.59150778 31.3469174 6.59150778 33.2050349 7.91140624 33.2050349 10.5874597L33.2129418 15.5985927z"/>
      <path fill="#000127" d="M46.4293761,15.5985927 C46.4293761,17.0447778 46.7337911,17.4847439 48.2598196,17.4847439 L48.2598196,18.0179992 L42.4917483,18.0179992 L42.4917483,17.4888177 C43.9584751,17.4888177 44.3538193,17.142548 44.3538193,16.1033317 L44.3538193,10.2864087 C44.4400043,8.97058403 43.4749692,7.83237529 42.1984029,7.7435673 C42.1134039,7.73745666 42.0276142,7.73623453 41.9418246,7.73990092 C40.8747907,7.73990092 39.9259647,8.43284761 38.8585355,9.91162275 L38.8585355,15.3500933 C38.8585355,17.0488515 39.0720213,17.4888177 40.6885836,17.4888177 L40.6885836,18.0220729 L34.9802093,18.0220729 L34.9802093,17.4888177 C36.4149132,17.4888177 36.7829786,17.3625311 36.7829786,15.3500933 L36.7829786,9.08872309 C36.7829786,7.73623453 36.4469361,7.45921881 34.9802093,7.45921881 L34.9802093,6.91700126 L38.3366812,6.57113897 L38.854582,6.57113897 L38.854582,8.80355984 C40.143404,7.29626838 41.3926915,6.59150778 42.7641404,6.59150778 C44.5673051,6.59150778 46.4293761,7.91140624 46.4293761,10.5874597 L46.4293761,15.5985927 Z"/>
    </g>
  </g>
</svg>
