<svg xmlns="http://www.w3.org/2000/svg" width="26" height="29" viewBox="0 0 26 29">
  <g fill="#FFFFFF" fill-rule="evenodd">
    <path d="M24.1860332,8.47291866 L24.1860332,13.0008532 C24.1860332,15.0052022 23.7258521,16.8053171 22.9901957,18.3987005 L12.7553888,8.96308073 L2.49577864,18.4486443 C1.74710486,16.8427749 1.27760055,15.0260716 1.27760055,13.0008532 L1.27760055,8.47291866 L1.27760055,1.3896487 L24.1860332,1.3896487 L24.1860332,8.47291866 Z M12.7290023,27.3914264 C12.0426007,27.3693085 8.89961332,25.9910398 6.07959701,23.3129855 L12.7553888,16.6842035 L19.4044423,23.291581 C16.5772137,25.9837266 13.4173389,27.3691301 12.7290023,27.3914264 L12.7290023,27.3914264 Z M-3.51820387e-05,-3.56740951e-05 L25.4638448,-3.56740951e-05 L25.4638448,12.9066736 C25.4638448,23.3836202 14.1767432,28.855848 12.7286505,28.9022244 C11.2810855,28.855848 -3.51820387e-05,23.3836202 -3.51820387e-05,12.9066736 L-3.51820387e-05,-3.56740951e-05 Z M7.36134904,15.8104914 C6.25012435,15.8104914 5.35333418,16.7224997 5.35333418,17.8455202 C5.35333418,18.974962 6.25012435,19.8837596 7.36134904,19.8837596 C8.46940735,19.8837596 9.37024345,18.974962 9.37024345,17.8455202 C9.37024345,16.7224997 8.46940735,15.8104914 7.36134904,15.8104914 Z M10.7593887,12.9849604 C10.7593887,14.1095862 11.6588175,15.0230214 12.7670517,15.0230214 C13.8754618,15.0230214 14.7762979,14.1095862 14.7762979,12.9849604 C14.7762979,11.8633668 13.8754618,10.9497533 12.7670517,10.9497533 C11.6588175,10.9497533 10.7593887,11.8633668 10.7593887,12.9849604 Z M18.2617649,19.8835634 C19.3696473,19.8835634 20.2706593,18.9749442 20.2706593,17.8455023 C20.2706593,16.7226602 19.3696473,15.8106519 18.2617649,15.8106519 C17.1507161,15.8106519 16.25375,16.7226602 16.25375,17.8455023 C16.25375,18.9749442 17.1507161,19.8835634 18.2617649,19.8835634 Z"/>
    <polygon fill-rule="nonzero" points="24.944 6.061 .514 6.061 .514 8.183 24.944 8.183"/>
  </g>
</svg>
