<svg xmlns="http://www.w3.org/2000/svg" width="1.93in" height="0.5in" viewBox="0 0 139 36"><title>Artboard 1</title><path d="M23.44,22.62c0,2.34.56,3,2.14,3v.56H18.8v-.56c1.32,0,2.14-.43,2.14-2.93V10.86c0-2.31-.56-3-2.14-3V7.3h6.89c5.21,0,7.31,2.77,7.31,5.37,0,3.13-2.37,4.88-6.66,4.88a21.82,21.82,0,0,1-2.9-.2Zm0-6.13a6,6,0,0,0,2.34.33c2.8,0,4.58-1.52,4.58-4.09A4.4,4.4,0,0,0,25.78,8H23.44Z" fill="#fff"/><path d="M33.43,19.07c-.07,5.24,3.06,6.56,4.65,6.56s2.44-.56,4.12-2.44V24a5.52,5.52,0,0,1-4.81,2.5,6,6,0,0,1-6.29-6.06A6,6,0,0,1,37,14.19c2.7,0,5.21,2.17,5,4.88Zm6.36-.56a3.16,3.16,0,0,0-3.13-3.62c-1.94,0-3.1,1.45-3.23,3.62Z" fill="#fff"/><path d="M54.64,23.64c0,1.52.33,2,2,2v.56H50.39v-.56c1.58,0,2-.36,2-1.45v-6.1a2.5,2.5,0,0,0-2.6-2.67c-1.15,0-2.17.72-3.33,2.27v5.7c0,1.78.23,2.24,2,2.24v.56H42.29v-.56c1.55,0,1.94-.13,1.94-2.24V16.83c0-1.42-.36-1.71-1.94-1.71v-.56l3.62-.36h.56v2.34c1.38-1.58,2.74-2.34,4.22-2.34a3.92,3.92,0,0,1,4,4.18Z" fill="#fff"/><path d="M68.91,23.64c0,1.52.33,2,2,2v.56H64.66v-.56c1.58,0,2-.36,2-1.45v-6.1a2.5,2.5,0,0,0-2.6-2.67c-1.15,0-2.17.72-3.33,2.27v5.7c0,1.78.23,2.24,2,2.24v.56H56.55v-.56c1.55,0,1.94-.13,1.94-2.24V16.83c0-1.42-.36-1.71-1.94-1.71v-.56l3.62-.36h.56v2.34c1.38-1.58,2.73-2.34,4.22-2.34a3.92,3.92,0,0,1,4,4.18Z" fill="#fff"/><path d="M.19,7.36H17v8.39c-.11,6.84-7.78,10.44-8.74,10.4S.17,22.61.19,15.72C.19,15.6.19,7.36.19,7.36Z" fill="#fff"/><path d="M.25,12.49s0-5.07,0-5.07H16.92v5.07Z" fill="#900"/><path d="M17,12.55H.25v-.06h0c0-.13,0-3.69,0-5.06V7.36H17ZM.3,12.43H16.86v-5H.31C.32,11.16.32,12.16.3,12.43Z" fill="#900"/><path d="M12.74,8.68h.45c.33-.08.45-.27.79-.27s.36.16.54.16.39-.17.64-.17.39.16.56.23a1.51,1.51,0,0,0,.56.06c0,.15,0,.24,0,.37s.17.08.17.29-.23.18-.23.27v.83c0,.1.22.12.22.27s-.23.15-.22.34,0,.42,0,.42l-3.47,0a2.32,2.32,0,0,1,.07-.44c0-.12-.26-.19-.26-.39s.16-.13.17-.26V9.59c0-.11-.25-.16-.24-.32s.23-.16.23-.29S12.75,8.73,12.74,8.68Z" fill="#fff"/><path d="M16.37,10.51l-.07-.05V9.63l0,0a.25.25,0,0,0,.19-.25.25.25,0,0,0-.13-.23s0,0,0-.06,0-.08,0-.12,0-.15,0-.25V8.64h-.09a1.37,1.37,0,0,1-.51-.06l-.15-.08a.77.77,0,0,0-.44-.15,1.14,1.14,0,0,0-.42.11.72.72,0,0,1-.22.07.46.46,0,0,1-.2-.07.71.71,0,0,0-.34-.1,1,1,0,0,0-.48.14,1.37,1.37,0,0,1-.32.13h-.51v.06s0,.13,0,.21,0,.08,0,.1,0,0-.06.06a.26.26,0,0,0-.16.22.29.29,0,0,0,.16.24s.08.06.08.08v.82s0,.05-.07.08a.22.22,0,0,0-.11.18.39.39,0,0,0,.18.29s.09.07.08.1a.45.45,0,0,1,0,.11,1.08,1.08,0,0,0,0,.33v.06H16.3v-.06s0-.29,0-.43,0-.06.07-.09a.25.25,0,0,0,.15-.24A.26.26,0,0,0,16.37,10.51ZM14.79,8.56a1.05,1.05,0,0,1,.38-.1.66.66,0,0,1,.38.14l.16.09.14,0c0,.23,0,1.56,0,2.12l-.28,0a1.59,1.59,0,0,1-.46,0l-.15,0a2.16,2.16,0,0,0-.39-.1h0v-2A1,1,0,0,0,14.79,8.56Zm-1.59.18a1.43,1.43,0,0,0,.36-.14A.84.84,0,0,1,14,8.47a.61.61,0,0,1,.29.08l.18.07v2h0a2.15,2.15,0,0,0-.39.1l-.15,0a1.59,1.59,0,0,1-.46,0h-.25c0-.54,0-1.85,0-2.1Zm3.1,2.13a.19.19,0,0,0-.12.2c0,.1,0,.27,0,.36H12.84a.85.85,0,0,1,0-.24.57.57,0,0,0,0-.14c0-.08-.06-.14-.12-.19s-.14-.12-.14-.2,0-.06.06-.09a.23.23,0,0,0,.11-.17V9.59c0-.07-.07-.12-.13-.17s-.12-.09-.11-.14,0-.09.1-.13.12-.07.12-.16,0-.05,0-.09,0-.11,0-.16h.25c0,.25,0,1.59,0,2.12h0V11H14.3a.22.22,0,0,0,.43,0H16V11c0-.44,0-1.91,0-2.23h.27c0,.07,0,.13,0,.19s0,.08,0,.12a.17.17,0,0,0,.1.15.13.13,0,0,1,.08.14c0,.1-.05.12-.12.15s-.11,0-.11.12v.83c0,.07.07.11.12.15s.1.07.1.12S16.37,10.84,16.31,10.87Z" fill="#011f5b"/><path d="M5.2,11.73A.38.38,0,0,0,5.6,12a1.93,1.93,0,0,0,1-.47A.67.67,0,0,0,7,11l0,.11s.32-.31,1.09-.07c.22.07,1.14.59,1.34.67a2.49,2.49,0,0,0,1.72.34,1.32,1.32,0,0,0,1.12-1.68c-.23-1.06-.16-1.13-.07-1.47,0,0-.88-.21-.86,1-.37,0-.83.31-.53,1a.69.69,0,0,1,.52-.38c.14,0,.3.21.3.36,0,.37-.35.53-.81.46-.23,0-.45-.3-.77-.53.06,0,.11-.22.11-.29s-.16-.27-.27-.34A.8.8,0,0,0,9.92,10c0-.15-.21-.14-.29-.2s0,0,0-.09,0-.34-.41-.33c0-.21,0-.35-.16-.41l-.33,0c-.2,0,0-.11-.19-.29s-.44,0-.44,0a.26.26,0,0,0-.28-.27.7.7,0,0,0-.28,0l-.14.11c-.17,0-.21-.15-.41-.15s-.27.15-.35.25c-.13-.06-.15-.17-.33-.17s-.14.11-.18.16-.11.26-.29.33L5.82,8.8v0a4.3,4.3,0,0,0-.86,1.77c0,.27.23.15.23.43s-.25.29-.25.43.21.27.39.27Z" fill="#fff"/><path d="M5.85,10.53h0a.25.25,0,0,0-.24.23.39.39,0,0,0,0,.14s0,0,0,.13l0,.07h.27L6,11c.11-.08.2-.14.2-.23S6.18,10.66,5.85,10.53Z" fill="#011f5b"/><path d="M.88,8.7h.45c.33-.08.45-.27.79-.27s.36.16.54.16.39-.17.64-.17.39.16.56.23a1.51,1.51,0,0,0,.56.06c0,.15,0,.24,0,.37s.17.08.17.29-.23.18-.23.27v.83c0,.1.22.12.22.27s-.23.15-.22.34,0,.42,0,.42H1c0-.31,0-.26,0-.41s-.26-.19-.26-.39.16-.13.17-.26V9.61c0-.11-.25-.16-.24-.32S.88,9.13.88,9,.88,8.75.88,8.7Z" fill="#fff"/><path d="M4.51,10.52l-.07-.05V9.65l0,0a.25.25,0,0,0,.18-.25.25.25,0,0,0-.13-.23s0,0,0-.06S4.5,9,4.5,9s0-.15,0-.25V8.65H4.41a1.42,1.42,0,0,1-.51-.06l-.15-.08a.77.77,0,0,0-.44-.15,1.14,1.14,0,0,0-.42.11.72.72,0,0,1-.22.07.46.46,0,0,1-.2-.07.71.71,0,0,0-.34-.1,1,1,0,0,0-.48.14,1.37,1.37,0,0,1-.32.13H.82V8.7s0,.13,0,.21,0,.08,0,.1,0,0-.06.06a.26.26,0,0,0-.16.22.29.29,0,0,0,.16.24s.08.06.08.08v.82s0,.05-.07.08a.22.22,0,0,0-.11.18A.39.39,0,0,0,.84,11s.09.07.08.1a1.33,1.33,0,0,0,0,.15s0,.11,0,.27v.06H4.44V11.5s0-.29,0-.43,0-.06.07-.09a.25.25,0,0,0,.15-.24A.26.26,0,0,0,4.51,10.52ZM2.93,8.57a1,1,0,0,1,.38-.1.66.66,0,0,1,.38.13l.16.09.14,0C4,9,4,10.29,4,10.86l-.28,0a1.58,1.58,0,0,1-.46,0l-.15,0a2.15,2.15,0,0,0-.39-.1h0v-2A1,1,0,0,0,2.93,8.57Zm-1.58.18a1.43,1.43,0,0,0,.36-.14.84.84,0,0,1,.43-.13.61.61,0,0,1,.29.08l.18.07v2h0a2.15,2.15,0,0,0-.39.1l-.15,0a1.58,1.58,0,0,1-.46,0H1.31c0-.54,0-1.85,0-2.1Zm3.1,2.13a.19.19,0,0,0-.12.2c0,.1,0,.27,0,.36H1c0-.12,0-.17,0-.21a1.26,1.26,0,0,1,0-.14C1,11,1,11,.91,10.89s-.14-.12-.14-.2,0-.06.06-.09A.23.23,0,0,0,1,10.43V9.6c0-.07-.07-.12-.13-.17S.71,9.34.71,9.29s0-.09.1-.13S.93,9.09.93,9s0-.05,0-.09,0-.11,0-.16h.25c0,.25,0,1.59,0,2.12h0V11H2.44a.19.19,0,0,0,.21.17.19.19,0,0,0,.21-.17H4.11V11c0-.44,0-1.91,0-2.23h.27c0,.07,0,.13,0,.19s0,.08,0,.12a.17.17,0,0,0,.1.15.13.13,0,0,1,.08.14c0,.1-.05.12-.11.15s-.11,0-.11.12v.84c0,.07.07.11.12.15s.1.07.1.12S4.51,10.85,4.45,10.88Z" fill="#011f5b"/><path d="M12.29,10.36c-.21-1-.17-1.1-.09-1.36l0-.13,0,0a.74.74,0,0,0-.58.08,1,1,0,0,0-.36.89.75.75,0,0,0-.54.33.85.85,0,0,0,0,.78l0,.1.06-.09c.11-.17.26-.35.47-.35s.24.18.25.3a.33.33,0,0,1-.11.28.79.79,0,0,1-.64.11,1.13,1.13,0,0,1-.46-.29l-.24-.2a.69.69,0,0,0,.08-.28.42.42,0,0,0-.26-.36h0A.53.53,0,0,0,10,10c0-.14-.14-.18-.23-.21h0a.25.25,0,0,0,0-.06v0a.33.33,0,0,0-.06-.26.47.47,0,0,0-.33-.09.35.35,0,0,0-.22-.41l-.32,0H8.72a.17.17,0,0,1,0,0,.28.28,0,0,0-.11-.24.4.4,0,0,0-.43,0,.32.32,0,0,0-.33-.24.68.68,0,0,0-.32.06l-.12.1a.28.28,0,0,1-.14-.06A.41.41,0,0,0,7,8.29a.44.44,0,0,0-.36.23h0l-.06,0a.33.33,0,0,0-.25-.11.23.23,0,0,0-.2.14l0,0A.73.73,0,0,0,6,8.7a.32.32,0,0,1-.12.14l0-.09h0V8.69l-.06,0a4.23,4.23,0,0,0-.9,1.82A.27.27,0,0,0,5,10.8a.17.17,0,0,1,.09.18.35.35,0,0,1-.12.2.39.39,0,0,0-.13.24.33.33,0,0,0,.27.3v0a.43.43,0,0,0,.45.34,1.88,1.88,0,0,0,1-.45l0,0A.8.8,0,0,0,7,11.12a1.16,1.16,0,0,1,1,0c.12,0,.51.24.82.41l.52.26.09,0a2.5,2.5,0,0,0,1.22.33,2.47,2.47,0,0,0,.43,0,1.58,1.58,0,0,0,1-.59A1.43,1.43,0,0,0,12.29,10.36ZM6.13,8.75a.63.63,0,0,1,.08-.13l0-.06c0-.06.06-.09.1-.09a.22.22,0,0,1,.17.08.5.5,0,0,0,.13.09l0,0,0,0,0,0A.33.33,0,0,1,7,8.41a.3.3,0,0,1,.19.07.37.37,0,0,0,.22.08h0l.14-.12a.63.63,0,0,1,.25,0,.2.2,0,0,1,.23.21v.1l.09-.05s.24-.14.37,0a.17.17,0,0,1,.07.15c0,.08,0,.13.15.15l.31,0c.08,0,.16.1.12.35v.07h.07c.17,0,.28,0,.32.05s0,.08,0,.17v0s0,0,0,0l0,0,0,0,0,0a.42.42,0,0,0,.13,0c.11,0,.14,0,.14.1a.46.46,0,0,1,0,.14l0,.06v.05l0,0c.1.06.23.13.23.28a.55.55,0,0,1,0,.15c-.18-.21-.36-.43-.48-.59s-.21-.27-.25-.29a.85.85,0,0,1-.16-.16,2.29,2.29,0,0,0-1.65-.86A2.91,2.91,0,0,0,6,9.09L6,8.94A.42.42,0,0,0,6.13,8.75Zm.79,2.35a.7.7,0,0,1-.34.4l0,0a1.79,1.79,0,0,1-1,.43.32.32,0,0,1-.32-.2l.07,0h0a1.36,1.36,0,0,0,.63-.1c.08,0,.46-.25.54-.45l-.11,0a1.26,1.26,0,0,1-.49.39,1.28,1.28,0,0,1-.6.09h0c-.13,0-.33-.06-.33-.21s0-.1.1-.16A.44.44,0,0,0,5.24,11a.28.28,0,0,0-.14-.27A.16.16,0,0,1,5,10.54a4.84,4.84,0,0,1,.78-1.68l0,.07.12.25a1.41,1.41,0,0,1,.22.63c0,.13-.2.32-.28.4l0,0,.07.09.13-.1c.12-.11.3-.26.41-.26a.49.49,0,0,1,.4.17l.09.12a2.1,2.1,0,0,0,.23.27s0,0,0,0-.2.18-.44.28v0l0,0h0c-.06,0-.1.06-.1.11v0h.31l0,.08Zm5.09.35a1.49,1.49,0,0,1-.92.54,2.31,2.31,0,0,1-1.58-.28l-.1-.05-.51-.26A9.3,9.3,0,0,0,8.07,11a1.88,1.88,0,0,0-.57-.1,1,1,0,0,0-.44.09c0-.07-.1-.08-.22-.08.21-.08.43-.21.46-.34a.14.14,0,0,0,0-.14A2,2,0,0,1,7,10.17L7,10.09A.39.39,0,0,0,7.06,10a.15.15,0,0,1,.16-.1.47.47,0,0,1,.23.07.53.53,0,0,0,.26.08.42.42,0,0,0,.2-.06.43.43,0,0,1,.21-.07.27.27,0,0,1,.18.1.39.39,0,0,1,.1.31v.09l.09,0a.45.45,0,0,1,.35,0,.38.38,0,0,1,.11.33v.08l.08,0a.32.32,0,0,1,.26,0c.07,0,.09.16.1.26s0,.08,0,.11a.22.22,0,0,0,.17.15c.09,0,.15.05.12.23h.12c0-.27-.11-.32-.2-.35s-.09,0-.09-.07,0-.06,0-.1a.44.44,0,0,0-.15-.34.36.36,0,0,0-.28,0,.44.44,0,0,0-.16-.35.5.5,0,0,0-.38-.07.51.51,0,0,0-.13-.32.38.38,0,0,0-.27-.14.53.53,0,0,0-.26.08.33.33,0,0,1-.14.05.42.42,0,0,1-.21-.07.58.58,0,0,0-.29-.09A.26.26,0,0,0,7,9.93.25.25,0,0,1,6.9,10a.6.6,0,0,0-.44-.17.4.4,0,0,0-.2.07.3.3,0,0,0,0-.1,1.33,1.33,0,0,0-.19-.6c.07-.2,1-.34,1.39-.32A2.18,2.18,0,0,1,9,9.71a.76.76,0,0,0,.2.18,2.81,2.81,0,0,1,.21.25c.13.17.32.41.51.63l-.07,0,.08.06.29.23a1.19,1.19,0,0,0,.51.31.88.88,0,0,0,.73-.14.45.45,0,0,0,.15-.37c0-.18-.18-.41-.36-.41a.66.66,0,0,0-.5.32.68.68,0,0,1,0-.58.66.66,0,0,1,.51-.28h.05V9.87A.94.94,0,0,1,11.64,9a.62.62,0,0,1,.44-.1V9c-.08.28-.12.44.09,1.41A1.32,1.32,0,0,1,12,11.46Z" fill="#011f5b"/><path d="M.13,7.31v.11s0,8.18,0,8.3c0,6.94,7.16,10.46,8.11,10.49h0a12.22,12.22,0,0,0,5.31-3.16A10.4,10.4,0,0,0,17,15.76V7.31Zm16.68.23v4.93H.36c0-2,0-4.39,0-4.93ZM8.25,26h0a10.78,10.78,0,0,1-4.43-2.72l4.77-4.82,4.56,4.68A12,12,0,0,1,8.25,26Zm7.51-6.19L8.62,12.92l0,0L1.26,19.8a9.44,9.44,0,0,1-.9-4.07c0-.05,0-1.48,0-3.15H16.81v3.18A9,9,0,0,1,15.77,19.8Z" fill="#011f5b"/><path d="M85.48,8.31H82.62V22.78a4.35,4.35,0,0,0,.42,2.3,1.86,1.86,0,0,0,1.62.59v.55H78v-.55A1.87,1.87,0,0,0,79.69,25a4.41,4.41,0,0,0,.45-2.3V8.31H77.41a5,5,0,0,0-2.85.63,2.62,2.62,0,0,0-1,2.07H73V6.69h.56a4.2,4.2,0,0,0,2.82.71h9.87a4.77,4.77,0,0,0,3-.71h.59V11h-.37A3.2,3.2,0,0,0,88.2,8.88,5.19,5.19,0,0,0,85.48,8.31Z" fill="#fff"/><path d="M99.15,20.44a5.85,5.85,0,0,1-1.82,4.39,6.77,6.77,0,0,1-9.1,0,5.85,5.85,0,0,1-1.82-4.39A5.9,5.9,0,0,1,88.23,16a6.79,6.79,0,0,1,9.11,0A5.9,5.9,0,0,1,99.15,20.44Zm-2.42,0a6.91,6.91,0,0,0-1.06-4,3.52,3.52,0,0,0-5.78,0,6.88,6.88,0,0,0-1.06,4,6.83,6.83,0,0,0,1.05,4,3.54,3.54,0,0,0,5.79,0A6.84,6.84,0,0,0,96.73,20.45Z" fill="#fff"/><path d="M112,5.58h.55V24A1.73,1.73,0,0,0,113,25.3a2.35,2.35,0,0,0,1.52.37v.55h-6.77a6.92,6.92,0,0,1-4.95-1.72A5.7,5.7,0,0,1,101,20.17a5.93,5.93,0,0,1,1.6-4.18,5.07,5.07,0,0,1,3.86-1.72,7.14,7.14,0,0,1,3.91,1.41V8.54a2.89,2.89,0,0,0-.3-1.59,1.46,1.46,0,0,0-1.24-.42h-.66V6Zm-1.68,18.34v-7a5.15,5.15,0,0,0-1.58-1.44,3.6,3.6,0,0,0-1.8-.52,3.06,3.06,0,0,0-2.57,1.31,5.54,5.54,0,0,0-1,3.41A6.72,6.72,0,0,0,104.73,24a4.55,4.55,0,0,0,3.75,1.65,2,2,0,0,0,1.41-.42A1.8,1.8,0,0,0,110.33,23.92Z" fill="#fff"/><path d="M119.33,26.59a3.33,3.33,0,0,1-2.34-.91,2.88,2.88,0,0,1-1-2.19,2.65,2.65,0,0,1,.84-2A8.81,8.81,0,0,1,120.27,20a11,11,0,0,0,2.18-.77v-.87a2.93,2.93,0,0,0-.71-2,2.43,2.43,0,0,0-1.89-.78,3,3,0,0,0-1.91.67A3.56,3.56,0,0,0,116.77,18l-.59-.16a4.51,4.51,0,0,1,1.53-2.6,4.15,4.15,0,0,1,7,3.29v5a5,5,0,0,0,.14,1.44.52.52,0,0,0,.52.38.5.5,0,0,0,.42-.22,3.4,3.4,0,0,0,.37-.91h.56a2.74,2.74,0,0,1-.68,1.73,2.07,2.07,0,0,1-1.58.64,2,2,0,0,1-2-1.65,6.1,6.1,0,0,1-1.54,1.3A3.38,3.38,0,0,1,119.33,26.59Zm3.13-2.73V19.91q-.5.21-1.44.53a5.33,5.33,0,0,0-2.24,1.18,2.39,2.39,0,0,0-.49,1.58,2.29,2.29,0,0,0,.52,1.5,1.56,1.56,0,0,0,1.24.63,2.73,2.73,0,0,0,1.38-.43A2.51,2.51,0,0,0,122.45,23.86Z" fill="#fff"/><path d="M131.66,14.62v.55q-1,.15-1,1a2,2,0,0,0,.18.76l2.79,6.58,2-6.15a4.26,4.26,0,0,0,.24-1.21q0-.94-1.17-1v-.55h4.12v.55a2.05,2.05,0,0,0-1.54.63,5.72,5.72,0,0,0-1.11,2.1l-4.63,13.72a8.73,8.73,0,0,1-1.72,3.09,3,3,0,0,1-2.14,1.14,2.83,2.83,0,0,1-1.45-.5l.76-2a2.8,2.8,0,0,0,1.13.27,2.4,2.4,0,0,0,1.73-.66,5.73,5.73,0,0,0,1.23-2.2l1.49-4.22-4.18-9.63a3.54,3.54,0,0,0-.92-1.39,2.5,2.5,0,0,0-1.44-.36v-.55Z" fill="#fff"/><ellipse cx="8.57" cy="16" rx="1.39" ry="1.34" fill="#fff"/><ellipse cx="4.57" cy="19.35" rx="1.39" ry="1.34" fill="#fff"/><ellipse cx="12.35" cy="19.35" rx="1.39" ry="1.34" fill="#fff"/></svg>