<svg xmlns="http://www.w3.org/2000/svg" width="237" height="34" viewBox="0 0 237 34" xmlns:xlink="http://www.w3.org/1999/xlink">
  <defs>
    <polygon id="a" points="19.357 21.199 .39 21.199 .39 .087 19.357 .087 19.357 21.199"/>
  </defs>
  <g fill="none" fill-rule="evenodd">
    <g transform="translate(0 1)">
      <path fill="#FFFFFF" d="M27.9069614,9.6415971 L27.9069614,14.7940743 C27.9069614,17.0748853 27.3759832,19.1232918 26.5271489,20.9364523 L14.7177564,10.1993677 L2.87974459,20.9932848 C2.01589022,19.1659162 1.47415448,17.0986332 1.47415448,14.7940743 L1.47415448,9.6415971 L1.47415448,1.58132439 L27.9069614,1.58132439 L27.9069614,9.6415971 Z M14.6873104,31.1695542 C13.8953085,31.1443855 10.2687846,29.5760108 7.01491963,26.5285697 L14.7177564,18.985473 L22.3897412,26.5042129 C19.1275543,29.5676889 15.4815449,31.1441826 14.6873104,31.1695542 L14.6873104,31.1695542 Z M-4.059466e-05,-4.059466e-05 L29.3813594,-4.059466e-05 L29.3813594,14.6869044 C29.3813594,26.6089471 16.3577806,32.835965 14.6869044,32.8887381 C13.0166371,32.835965 -4.059466e-05,26.6089471 -4.059466e-05,14.6869044 L-4.059466e-05,-4.059466e-05 Z M8.49386428,17.9912488 C7.21168194,17.9912488 6.17692406,19.0290513 6.17692406,20.3069712 C6.17692406,21.5921982 7.21168194,22.6263471 8.49386428,22.6263471 C9.77239309,22.6263471 10.8118194,21.5921982 10.8118194,20.3069712 C10.8118194,19.0290513 9.77239309,17.9912488 8.49386428,17.9912488 Z M12.4146792,14.7759894 C12.4146792,16.0557361 13.4524817,17.0951623 14.7312135,17.0951623 C16.0101483,17.0951623 17.0495745,16.0557361 17.0495745,14.7759894 C17.0495745,13.4996933 16.0101483,12.460064 14.7312135,12.460064 C13.4524817,12.460064 12.4146792,13.4996933 12.4146792,14.7759894 Z M21.0712672,22.6261239 C22.349593,22.6261239 23.3892223,21.5921779 23.3892223,20.3069509 C23.3892223,19.029234 22.349593,17.9914315 21.0712672,17.9914315 C19.7892878,17.9914315 18.754327,19.029234 18.754327,20.3069509 C18.754327,21.5921779 19.7892878,22.6261239 21.0712672,22.6261239 Z"/>
      <path stroke="#FFFFFF" stroke-width="2" d="M27.6281438,8.10425553 L1.74732454,8.10425553" stroke-linecap="square"/>
    </g>
    <g transform="translate(41)">
      <path fill="#FFFFFF" d="M117.115636,1.08928355 L117.115636,0.131655572 L126.860049,0.131655572 L126.860049,1.08928355 C125.300066,1.08928355 124.218896,1.45479042 123.614348,2.18580414 C123.0098,2.91681787 122.707891,4.2443388 122.707891,6.16982896 L122.707891,32.3986015 L121.742953,32.3986015 L98.8695335,4.36422505 L98.8695335,27.0256506 C98.8695335,28.6192605 99.1933725,29.761835 99.8417817,30.454105 C100.490191,31.146375 101.576477,31.4892204 103.102103,31.4848343 L103.102103,32.4205319 L93.3138291,32.4205319 L93.3138291,31.4629039 C94.8679643,31.4629039 95.9213551,31.0564603 96.4718084,30.242111 C97.0229928,29.4284927 97.297854,27.9927817 97.297854,25.9364401 L97.297854,7.0616657 C97.297854,5.02433045 96.927961,3.56230299 96.1867131,2.67558334 C95.4454652,1.78886369 94.2275963,1.26253381 92.5316445,1.09659369 L92.5316445,0.131655572 L100.80672,0.131655572 L121.011939,25.2492872 L121.011939,6.39644321 C121.011939,4.41758905 120.73123,3.03889716 120.171273,2.25890552 C119.610586,1.47891387 118.593015,1.08928355 117.115636,1.08928355"/>
      <g transform="translate(126.465 11.834)">
        <mask id="b" fill="white">
          <use xlink:href="#a"/>
        </mask>
        <path fill="#FFFFFF" d="M4.37891843,7.4499802 L15.2344723,7.4499802 L15.2344723,7.06254292 C15.3148838,5.50329064 14.7644304,3.97766499 13.7066536,2.82997344 C12.7117439,1.79851307 11.330859,1.23051541 9.89807207,1.26560407 C8.42215535,1.21077804 6.99960264,1.8160574 6.01638918,2.91769509 C4.96811549,4.1962381 4.38988363,5.79569613 4.37891843,7.4499802 M19.3573897,15.4465394 L19.3573897,16.9085668 C18.3683281,18.2543631 17.1080605,19.3772002 15.6584602,20.2061697 C14.2556449,20.8977087 12.7044338,21.2361681 11.1407954,21.1930383 C8.28180072,21.2931871 5.50248653,20.2390653 3.42860058,18.2689834 C1.41027168,16.331066 0.308633996,13.6299702 0.394893615,10.8345738 C0.327640352,8.00262657 1.37810708,5.25840104 3.31894852,3.1954803 C5.12528344,1.17934445 7.71745812,0.0455421552 10.4244019,0.0886719651 C12.664959,0.0638174984 14.8294907,0.900828216 16.4698855,2.42791589 C18.1073562,3.82853819 19.0437848,5.88049372 19.0284335,8.03479118 L19.0284335,8.44342785 L4.40815898,8.44342785 L4.40815898,8.72194408 C4.36356714,10.6795988 4.70348852,12.6262884 5.40964778,14.4530917 C6.00030687,15.9757933 7.01422291,17.2974661 8.33370269,18.2616732 C9.49089742,19.1352346 10.8966368,19.6169727 12.346237,19.635979 C13.5129349,19.6696057 14.6664746,19.3888964 15.6877008,18.8245538 C17.0598135,17.8720429 18.2937647,16.7353166 19.3573897,15.4465394" mask="url(#b)"/>
      </g>
      <path fill="#FFFFFF" d="M155.267608 12.5588158L155.267608 13.4945134C153.868448 13.5332571 153.169599 13.9287356 153.169599 14.6787556 153.223694 15.2789179 153.382324 15.8651909 153.637447 16.4112582L158.140492 27.5811479 162.81898 15.5852127C162.54485 14.9550788 162.138406 14.3914672 161.626696 13.9331216 161.113525 13.6195167 160.517749 13.4667349 159.916124 13.4945134L159.916124 12.5588158 169.536996 12.5588158 169.536996 13.4945134C167.826424 13.5332571 166.971138 14.0552009 166.971138 15.0588828 166.990875 15.5048011 167.092486 15.9434094 167.270853 16.3527771L171.715417 27.5884581 175.838334 17.1276516C176.119775 16.4916697 176.287908 15.8110959 176.334693 15.1173639 176.334693 14.0500838 175.496951 13.4996305 173.820736 13.4652729L173.820736 12.5588158 181.568751 12.5588158 181.568751 13.4945134C180.175439 13.4945134 179.217811 13.7087004 178.696598 14.1378055 177.905641 15.0055188 177.309865 16.031862 176.948744 17.149582L170.721238 32.8371366 169.77092 32.8371366 163.411101 17.1203415 157.168244 32.8371366 156.254477 32.8371366 149.214814 15.6656242C148.630003 14.2035967 147.411403 13.472583 145.559746 13.472583L145.559746 12.5588158 155.267608 12.5588158zM194.171939 11.9227608L194.171939 18.0486558 193.046178 18.0486558C192.932871 16.6765431 192.349522 15.3855728 191.394087 14.3935872 190.518333 13.5039435 189.315815 13.0119712 188.067975 13.0339017 187.210496 12.9893098 186.363251 13.2480887 185.67756 13.7649154 185.079591 14.2451914 184.743324 14.9798602 184.771103 15.7459626 184.766717 16.5369194 185.067894 17.2986357 185.611769 17.8732125 186.6944 18.8103721 187.930544 19.5523511 189.266837 20.0662537 191.703306 21.1671604 193.302033 22.2205512 194.062287 23.224233 194.858361 24.2732377 195.271384 25.5627459 195.231909 26.8793016 195.246529 28.5145793 194.57619 30.0818728 193.382444 31.1995928 192.208436 32.3933382 190.596551 33.0534436 188.923261 33.0271271 187.708316 32.9386744 186.523343 32.6104493 185.436325 32.062189 184.946546 31.8158373 184.420947 31.6477042 183.879266 31.5650996 183.544462 31.5607135 183.224278 31.7025302 183.00205 31.9525369 182.760084 32.2186259 182.615343 32.5592783 182.592682 32.917475L181.613123 32.917475 181.613123 26.1044271 182.578062 26.1044271C182.842689 27.7440909 183.657038 29.244131 184.888065 30.358927 186.010171 31.3823462 187.478047 31.9444958 188.996362 31.9306065 189.925481 31.9532679 190.823896 31.5936092 191.481809 30.9364278 192.142645 30.2953288 192.505228 29.4078781 192.482567 28.4875318 192.495725 27.5876539 192.163114 26.7162856 191.55491 26.0532561 190.930624 25.3412488 189.590676 24.5480989 187.534335 23.6701514 185.229448 22.6613524 183.70894 21.7154207 182.972809 20.8338181 182.235947 19.9383263 181.847048 18.8067171 181.876288 17.6465983 181.867516 16.1078144 182.522505 14.6399388 183.674582 13.6187126 184.820812 12.5134199 186.358865 11.9066785 187.951012 11.9300709 188.812147 11.9498083 189.660854 12.1362168 190.451079 12.4783312 190.944514 12.7012904 191.47523 12.8328729 192.015449 12.8657685 192.573212 12.8496862 193.05495 12.4695591 193.199691 11.9300709L194.171939 11.9227608zM7.96081259 15.7459626C9.24593472 16.196267 10.6070823 16.3877926 11.9667678 16.3088431 16.7622179 16.3088431 19.8105451 13.7137444 19.8105451 9.31304178 19.8105451 5.86996713 17.8952891 1.27189078 11.9667678 1.27189078L7.96081259 1.27189078 7.96081259 15.7459626zM7.96081259 26.2433197C7.96081259 30.2492749 8.91844057 31.3604158 11.6158812 31.3604158L11.6158812 32.3180438.0000731013727 32.3180438.0000731013727 31.3823462C2.25890552 31.3823462 3.65514174 30.6513325 3.65514174 26.3602819L3.65514174 6.09658138C3.65514174 2.14910726 2.69751375.979485293.0000731013727.979485293L.0000731013727-.0000731013727 11.7986347-.0000731013727C20.7170021-.0000731013727 24.3282099 4.73689585 24.3282099 9.19607958 24.3282099 14.5544102 20.2637736 17.5515665 12.9243958 17.5515665 11.2642636 17.5493734 9.60559347 17.4375283 7.96081259 17.2153002L7.96081259 26.2433197zM35.9513282 19.1893296C36.1194613 14.8032473 33.1296152 12.9830231 30.5929976 12.9830231 27.259575 12.9830231 25.2858379 15.4684698 25.0592237 19.1893296L35.9513282 19.1893296zM25.0592237 20.1469576C24.9495716 29.1238062 30.3079022 31.3753285 33.0199631 31.3753285 35.7320241 31.3753285 37.1940515 30.4169695 40.0742456 27.2012401L40.0742456 28.6632675C37.6765206 31.777386 35.3372767 32.9616283 31.8284108 32.9616283 25.5636231 32.9616283 21.0459583 28.6186757 21.0459583 22.5739232 21.0459583 16.5284397 25.4612812 11.8280214 31.097397 11.8280214 35.7247139 11.8280214 40.0157645 15.5561914 39.7306692 20.1827773L25.0592237 20.1469576zM61.4126094 27.990808C61.4126094 30.5859067 61.97549 31.3754016 64.797203 31.3754016L64.797203 32.3322985 54.1317127 32.3322985 54.1317127 31.3827117C56.8437736 31.3827117 57.5747873 30.76135 57.5747873 28.896534L57.5747873 18.458389C57.7341483 16.0972147 55.9504748 14.0547623 53.5900315 13.8954013 53.4321325 13.8844361 53.2735026 13.8822431 53.1156036 13.8888222 51.1418665 13.8888222 49.3874336 15.1322766 47.4136965 17.7858564L47.4136965 27.5448896C47.4136965 30.5932169 47.8084439 31.3827117 50.7982901 31.3827117L50.7982901 32.3396087 40.2424519 32.3396087 40.2424519 31.3827117C42.8960317 31.3827117 43.5758745 31.1560974 43.5758745 27.5448896L43.5758745 16.3092087C43.5758745 13.8822431 42.9545128 13.3851537 40.2424519 13.3851537L40.2424519 12.4121745 46.4487584 11.8280945 47.4063864 11.8280945 47.4063864 15.8340497C49.7748709 13.1219888 52.0921844 11.8280945 54.628802 11.8280945 57.9622246 11.8280945 61.3979891 14.196579 61.3979891 18.9986082L61.4126094 27.990808z"/>
      <path fill="#FFFFFF" d="M85.8505445,27.990808 C85.8505445,30.5859067 86.4134251,31.3754016 89.2351381,31.3754016 L89.2351381,32.3322985 L78.5696478,32.3322985 L78.5696478,31.3827117 C81.2817087,31.3827117 82.0127224,30.76135 82.0127224,28.896534 L82.0127224,18.458389 C82.1720834,16.0972147 80.3876789,14.0547623 78.0272356,13.8954013 C77.8700676,13.8844361 77.7114377,13.8822431 77.5528077,13.8888222 C75.5798016,13.8888222 73.8253687,15.1322766 71.8516316,17.7858564 L71.8516316,27.5448896 C71.8516316,30.5932169 72.246379,31.3827117 75.2354942,31.3827117 L75.2354942,32.3396087 L64.680387,32.3396087 L64.680387,31.3827117 C67.3332358,31.3827117 68.0138096,31.1560974 68.0138096,27.5448896 L68.0138096,16.3092087 C68.0138096,13.8822431 67.3924479,13.3851537 64.680387,13.3851537 L64.680387,12.4121745 L70.8866935,11.7915438 L71.8443215,11.7915438 L71.8443215,15.797499 C74.2274262,13.0927483 76.5374296,11.8280945 79.0733162,11.8280945 C82.4074698,11.8280945 85.8505445,14.196579 85.8505445,18.9986082 L85.8505445,27.990808 Z"/>
    </g>
  </g>
</svg>
