<?xml version="1.0" encoding="utf-8"?>
<!-- Generator: Adobe Illustrator 21.1.0, SVG Export Plug-In . SVG Version: 6.00 Build 0)  -->
<svg version="1.1" id="Layer_1" xmlns="http://www.w3.org/2000/svg" xmlns:xlink="http://www.w3.org/1999/xlink" x="0px" y="0px"
	 viewBox="0 0 445 102" style="enable-background:new 0 0 445 102;" xml:space="preserve">
<style type="text/css">
	.st0{fill:#000127;}
	.st1{fill:#000127;stroke:#FFFFFF;stroke-width:2;stroke-linecap:square;stroke-miterlimit:10;}
	.st2{fill:#FFFFFF;stroke:#FFFFFF;stroke-width:2;stroke-linecap:square;stroke-miterlimit:10;}
	.st3{fill:#FFFFFF;}
	.st4{clip-path:url(#SVGID_2_);}
	.st5{clip-path:url(#SVGID_4_);fill:#000127;}
	.st6{clip-path:url(#SVGID_6_);}
	.st7{clip-path:url(#SVGID_8_);fill:#000127;}
	.st8{clip-path:url(#SVGID_10_);}
	.st9{clip-path:url(#SVGID_12_);enable-background:new    ;}
	.st10{clip-path:url(#SVGID_14_);}
	.st11{clip-path:url(#SVGID_16_);}
	.st12{clip-path:url(#SVGID_18_);fill:#000127;}
	.st13{clip-path:url(#SVGID_20_);}
	.st14{clip-path:url(#SVGID_22_);fill:#000127;}
	.st15{clip-path:url(#SVGID_24_);}
	.st16{clip-path:url(#SVGID_26_);fill:#000127;}
	.st17{clip-path:url(#SVGID_28_);}
	.st18{clip-path:url(#SVGID_30_);fill:#000127;}
	.st19{clip-path:url(#SVGID_32_);}
	.st20{clip-path:url(#SVGID_34_);fill:#000127;}
	.st21{clip-path:url(#SVGID_36_);}
	.st22{clip-path:url(#SVGID_38_);fill:#000127;}
	.st23{clip-path:url(#SVGID_40_);}
	.st24{clip-path:url(#SVGID_42_);fill:#000127;}
	.st25{fill:none;}
</style>
<g>
	<line class="st1" x1="48.1" y1="29.6" x2="4" y2="29.6"/>
</g>
<path class="st0" d="M0,13v26C0,60,23,71,26,71.1c3-0.1,26-11.1,26-32.2V13H0z M49.3,15.8v9.6H2.6v-9.6H49.3z M10.9,48.9
	c0-2.3,1.8-4.1,4.1-4.1c2.3,0,4.1,1.8,4.1,4.1c0,2.3-1.8,4.1-4.1,4.1C12.7,53,10.9,51.2,10.9,48.9z M26,68.1
	c-1.4,0-7.8-2.8-13.6-8.2L26,46.5l13.6,13.3C33.8,65.2,27.4,68,26,68.1z M21.9,39.1c0-2.3,1.8-4.1,4.1-4.1c2.3,0,4.1,1.8,4.1,4.1
	c0,2.3-1.8,4.1-4.1,4.1C23.8,43.2,21.9,41.4,21.9,39.1z M37.2,53c-2.3,0-4.1-1.8-4.1-4.1c0-2.3,1.8-4.1,4.1-4.1
	c2.3,0,4.1,1.8,4.1,4.1C41.3,51.2,39.5,53,37.2,53z M49.3,39.1c0,4-0.9,7.7-2.4,10.9L26,31L5.1,50.1c-1.5-3.2-2.5-6.9-2.5-11V30
	v-1.1h46.7V30V39.1z"/>
<path class="st0" d="M82.2,58.2c0,6.9,1.6,8.8,6.3,8.8v1.6H68.6V67c3.9,0,6.3-1.3,6.3-8.6V23.7c0-6.8-1.6-8.8-6.3-8.8v-1.6h20.2
	c15.3,0,21.5,8.1,21.5,15.8c0,9.2-7,14.3-19.5,14.3c-2.4,0-4.4-0.1-8.5-0.6V58.2z M82.2,40.2c2.5,0.9,4,1,6.9,1
	c8.2,0,13.4-4.4,13.4-12c0-5.9-3.3-13.8-13.4-13.8h-6.9V40.2z"/>
<path class="st0" d="M114.5,45.6c-0.2,17,9.9,21.3,15.1,21.3c5.2,0,7.9-1.8,13.4-7.9v2.8c-4.6,5.9-9,8.1-15.6,8.1
	c-11.9,0-20.4-8.2-20.4-19.7c0-11.4,8.3-20.4,19-20.4c8.8,0,16.9,7.1,16.3,15.8H114.5z M135.1,43.7c0.3-8.3-5.3-11.8-10.1-11.8
	c-6.3,0-10,4.7-10.5,11.8H135.1z"/>
<path class="st0" d="M230.6,60.4V43.3c0-9.1-6.5-13.6-12.8-13.6c-4.8,0-9.2,2.5-13.7,7.6v-7.6h-1.8l-11.8,1.2v1.8
	c5.1,0,6.3,1,6.3,5.6v21.3c0,6.7-1.2,7.2-6.1,7.3c-5.3,0-6.3-1.5-6.3-6.4V43.3c0-9.1-6.5-13.6-12.8-13.6c-4.8,0-9.2,2.5-13.7,7.6
	v-7.6h-1.8l-11.8,1.2v1.8c5.1,0,6.3,1,6.3,5.6v21.3c0,6.8-1.3,7.3-6.3,7.3v1.8h20v-1.8c-5.7,0-6.4-1.5-6.4-7.3V41.1
	c3.7-5,7.1-7.4,10.8-7.4c4.1,0,8.4,2.6,8.4,8.7v19.8c0,3.5-1.4,4.7-6.5,4.7v1.8h19.9h0.3h19.7v-1.8c-5.7,0-6.4-1.5-6.4-7.3V41.1
	c3.7-5,7.1-7.4,10.8-7.4c4.1,0,8.4,2.6,8.4,8.7v19.8c0,3.5-1.4,4.7-6.5,4.7v1.8H237v-1.8C231.7,66.8,230.6,65.3,230.6,60.4z"/>
<path class="st0" d="M265.3,58.5c0,6.7,1.3,8.5,6,8.5v1.6h-19.6V67c4,0,6.3-1.2,6.3-8.8V16.9h-8c-7.4,0-10.8,2.1-11.3,7.9H237V12.2
	h1.6c0.8,0.7,1.6,1.2,3,1.5c1.3,0.3,3,0.5,5.3,0.5h29c4.8,0,7.1-0.6,8.8-2h1.7v12.7h-1.1c-1.1-4.6-2.9-7.9-11.7-7.9h-8.4V58.5z"/>
<path class="st0" d="M299,69.8c-11.9,0-20.7-8.5-20.7-20c0-11.5,8.9-20.1,20.7-20.1s20.7,8.5,20.7,20.1
	C319.7,61.3,310.9,69.8,299,69.8z M299,31.9c-8,0-12.8,7.1-12.8,17.9c0,9.7,4.1,17.8,12.8,17.8c9,0,12.8-8.7,12.8-17.8
	C311.8,40.3,307.8,31.9,299,31.9z"/>
<path class="st0" d="M361.7,61.3c0,4.2,1.5,5.6,6.3,5.6v1.8h-22c-16,0-22-10.8-22-19.7c0-10.7,7.9-19.2,17.7-19.2
	c4.1,0,7.9,1.4,12.7,4.6V11.2c0-5.4-1.3-6.5-5-6.5h-2.1V2.8l12.6-1.3h1.8V61.3z M354.4,38.4c-3-4.1-7.2-6.4-11-6.4
	c-6.8,0-11.5,6.2-11.5,15.4c0,9.1,4.2,19.5,16.6,19.5c4.3,0,6-1.7,6-5.8V38.4z"/>
<path class="st0" d="M399.2,59.9c0,4.4,0.4,5.9,2.1,5.9c1.2,0,1.7-1,2.6-3.6h1.8c-0.3,4.7-3.1,7.7-7.4,7.7c-3.2,0-5.1-1.6-6.4-5.3
	c-3.7,4.1-6.2,5.3-10.1,5.3c-5.9,0-10.8-4.5-10.8-10c0-10.8,14.7-10.4,20.9-14V43c0-5.3-3.1-9.2-8.4-9.2c-4.3,0-8.4,2.7-10,8.1
	l-1.9-0.5c1.6-7.1,7.2-11.6,14-11.6c6.3,0,13.7,3.6,13.7,13.9V59.9z M391.9,48.1c-7.2,3.1-13.6,3-13.6,10.7c0,3.8,2.7,6.9,5.8,6.9
	c2.2,0,6.3-1.6,7.8-4.8V48.1z"/>
<path class="st0" d="M427.1,59.9l6.6-20c1.5-4.5,1.2-6.9-3-7.2v-1.8H444v1.8c-4.1,0-6.5,2.6-8.7,8.9l-15.1,44.5
	c-3,8.8-7.9,13.8-12.5,13.8c-1.6,0-2.8-0.4-4.7-1.6l2.5-6.5c1.5,0.6,2.4,0.9,3.6,0.9c4.6,0,7.3-2.7,9.6-9.3l4.9-13.7l-13.6-31.3
	c-1.9-4.4-3.3-5.6-7.7-5.7v-1.8h18.2v1.8c-2.9,0.4-4.1,2.6-2.7,5.8L427.1,59.9z"/>
<g>
	<defs>
		<path id="SVGID_1_" d="M-646.1-64.6c2.2,0,4-1.8,4-4c0-2.2-1.8-4-4-4c-2.2,0-4,1.8-4,4C-650-66.4-648.2-64.6-646.1-64.6z
			 M-660.8-78c0,2.2,1.8,4,4,4c2.2,0,4-1.8,4-4c0-2.2-1.8-4-4-4C-659.1-82-660.8-80.2-660.8-78z M-667.5-72.5c-2.2,0-4,1.8-4,4
			c0,2.2,1.8,4,4,4c2.2,0,4-1.8,4-4C-663.6-70.8-665.3-72.5-667.5-72.5z M-682-103.2h50.1v25.1c0,20.3-22.2,31-25.1,31.1
			c-2.8-0.1-25.1-10.7-25.1-31.1V-103.2z M-656.9-50c-1.4,0-7.5-2.7-13.1-7.9l13.1-12.9l13.1,12.8C-649.4-52.8-655.6-50.1-656.9-50z
			 M-634.4-86.8v8.8c0,3.9-0.9,7.4-2.4,10.5l-20.1-18.3l-20.2,18.4c-1.5-3.1-2.4-6.6-2.4-10.6v-8.8v-13.8h45.1V-86.8z"/>
	</defs>
	<use xlink:href="#SVGID_1_"  style="overflow:visible;fill-rule:evenodd;clip-rule:evenodd;fill:#000127;"/>
	<clipPath id="SVGID_2_">
		<use xlink:href="#SVGID_1_"  style="overflow:visible;"/>
	</clipPath>
	<g class="st4">
		<defs>
			<rect id="SVGID_3_" x="-1709" y="-164.6" width="2456.5" height="6359.7"/>
		</defs>
		<use xlink:href="#SVGID_3_"  style="overflow:visible;fill:#000127;"/>
		<clipPath id="SVGID_4_">
			<use xlink:href="#SVGID_3_"  style="overflow:visible;"/>
		</clipPath>
	</g>
</g>
<g>
	<defs>
		<path id="SVGID_5_" d="M-412.3-103.1v-1.6h16.6v1.6c-2.7,0-4.5,0.6-5.5,1.9c-1,1.2-1.5,3.5-1.5,6.8v44.7h-1.6l-39-47.8v38.7
			c0,2.7,0.6,4.7,1.7,5.8c1.1,1.2,3,1.8,5.6,1.8v1.6h-16.7v-1.6c2.7,0,4.4-0.7,5.4-2.1c0.9-1.4,1.4-3.8,1.4-7.3v-32.2
			c0-3.5-0.6-6-1.9-7.5c-1.3-1.5-3.3-2.4-6.2-2.7v-1.6h14.1l34.5,42.8V-94c0-3.4-0.5-5.7-1.4-7.1
			C-408-102.4-409.7-103.1-412.3-103.1"/>
	</defs>
	<use xlink:href="#SVGID_5_"  style="overflow:visible;fill-rule:evenodd;clip-rule:evenodd;fill:#000127;"/>
	<clipPath id="SVGID_6_">
		<use xlink:href="#SVGID_5_"  style="overflow:visible;"/>
	</clipPath>
	<g class="st6">
		<defs>
			<rect id="SVGID_7_" x="-1709" y="-164.6" width="2456.5" height="6359.7"/>
		</defs>
		<use xlink:href="#SVGID_7_"  style="overflow:visible;fill:#000127;"/>
		<clipPath id="SVGID_8_">
			<use xlink:href="#SVGID_7_"  style="overflow:visible;"/>
		</clipPath>
	</g>
</g>
<g>
	<defs>
		<rect id="SVGID_9_" x="-395.6" y="-84.6" width="32.4" height="36"/>
	</defs>
	<use xlink:href="#SVGID_9_"  style="overflow:visible;fill-rule:evenodd;clip-rule:evenodd;fill:#000127;"/>
	<clipPath id="SVGID_10_">
		<use xlink:href="#SVGID_9_"  style="overflow:visible;"/>
	</clipPath>
	<g class="st8">
		<defs>
			<rect id="SVGID_11_" x="-1709" y="-164.6" width="2456.5" height="6359.7"/>
		</defs>
		<use xlink:href="#SVGID_11_"  style="overflow:visible;fill:#000127;"/>
		<clipPath id="SVGID_12_">
			<use xlink:href="#SVGID_11_"  style="overflow:visible;"/>
		</clipPath>
	</g>
</g>
<g>
	<defs>
		<path id="SVGID_19_" d="M-347.2-83.5v1.6c-2.4,0.1-3.6,0.7-3.6,2c0.1,1,0.4,2,0.8,3l7.7,19.1l8-20.5c-0.5-1.1-1.2-2-2-2.8
			c-0.9-0.5-1.9-0.8-2.9-0.7v-1.6h16.4v1.6c-2.9,0.1-4.4,1-4.4,2.7c0,0.8,0.2,1.5,0.5,2.2l7.6,19.2l7-17.8c0.5-1.1,0.8-2.2,0.8-3.4
			c0-1.8-1.4-2.8-4.3-2.8v-1.5h13.2v1.6c-2.4,0-4,0.4-4.9,1.1c-1.3,1.5-2.4,3.2-3,5.1l-10.6,26.8h-1.6l-10.8-26.8l-10.6,26.8h-1.6
			l-12-29.3c-1-2.5-3.1-3.7-6.2-3.7v-1.6H-347.2z"/>
	</defs>
	<use xlink:href="#SVGID_19_"  style="overflow:visible;fill-rule:evenodd;clip-rule:evenodd;fill:#000127;"/>
	<clipPath id="SVGID_14_">
		<use xlink:href="#SVGID_19_"  style="overflow:visible;"/>
	</clipPath>
	<g class="st10">
		<defs>
			<rect id="SVGID_21_" x="-1709" y="-164.6" width="2456.5" height="6359.7"/>
		</defs>
		<use xlink:href="#SVGID_21_"  style="overflow:visible;fill:#000127;"/>
		<clipPath id="SVGID_16_">
			<use xlink:href="#SVGID_21_"  style="overflow:visible;"/>
		</clipPath>
	</g>
</g>
<g>
	<defs>
		<path id="SVGID_23_" d="M-280.8-84.6v10.5h-1.9c-0.2-2.3-1.2-4.5-2.8-6.2c-1.5-1.5-3.5-2.4-5.7-2.3c-1.5-0.1-2.9,0.4-4.1,1.2
			c-1,0.8-1.6,2.1-1.5,3.4c0,1.3,0.5,2.6,1.4,3.6c1.8,1.6,4,2.9,6.2,3.7c4.2,1.9,6.9,3.7,8.2,5.4c1.4,1.8,2.1,4,2,6.2
			c0,2.8-1.1,5.5-3.2,7.4c-2,2-4.8,3.2-7.6,3.1c-2.1-0.2-4.1-0.7-5.9-1.6c-0.8-0.4-1.7-0.7-2.7-0.8c-0.6,0-1.1,0.2-1.5,0.7
			c-0.4,0.5-0.7,1-0.7,1.6h-1.7v-11.6h1.6c0.5,2.8,1.8,5.4,3.9,7.3c1.9,1.7,4.4,2.7,7,2.7c1.6,0,3.1-0.6,4.2-1.7
			c1.1-1.1,1.7-2.6,1.7-4.2c0-1.5-0.5-3-1.6-4.2c-1.1-1.2-3.4-2.6-6.9-4.1c-3.9-1.7-6.5-3.3-7.8-4.8c-1.3-1.5-1.9-3.5-1.9-5.4
			c0-2.6,1.1-5.1,3.1-6.9c2-1.9,4.6-2.9,7.3-2.9c1.5,0,2.9,0.4,4.3,0.9c0.8,0.4,1.7,0.6,2.7,0.7c1,0,1.8-0.7,2-1.6L-280.8-84.6z"/>
	</defs>
	<use xlink:href="#SVGID_23_"  style="overflow:visible;fill-rule:evenodd;clip-rule:evenodd;fill:#000127;"/>
	<clipPath id="SVGID_18_">
		<use xlink:href="#SVGID_23_"  style="overflow:visible;"/>
	</clipPath>
	<g style="clip-path:url(#SVGID_18_);">
		<defs>
			<rect id="SVGID_25_" x="-1709" y="-164.6" width="2456.5" height="6359.7"/>
		</defs>
		<use xlink:href="#SVGID_25_"  style="overflow:visible;fill:#000127;"/>
		<clipPath id="SVGID_20_">
			<use xlink:href="#SVGID_25_"  style="overflow:visible;"/>
		</clipPath>
	</g>
</g>
<g>
	<defs>
		<path id="SVGID_27_" d="M-598.5-60.2c0,6.8,1.6,8.7,6.2,8.7v1.6h-19.8v-1.6c3.9,0,6.2-1.2,6.2-8.6v-34.6c0-6.7-1.6-8.7-6.2-8.7
			v-1.7h20.1c15.2,0,21.4,8.1,21.4,15.7c0,9.1-6.9,14.3-19.5,14.3c-2.8,0-5.7-0.2-8.5-0.6V-60.2z M-598.5-78.1
			c2.2,0.8,4.5,1.1,6.8,1c8.2,0,13.4-4.4,13.4-11.9c0-5.9-3.3-13.7-13.4-13.7h-6.8V-78.1z"/>
	</defs>
	<use xlink:href="#SVGID_27_"  style="overflow:visible;fill-rule:evenodd;clip-rule:evenodd;fill:#000127;"/>
	<clipPath id="SVGID_22_">
		<use xlink:href="#SVGID_27_"  style="overflow:visible;"/>
	</clipPath>
	<g style="clip-path:url(#SVGID_22_);">
		<defs>
			<rect id="SVGID_29_" x="-1709" y="-164.6" width="2456.5" height="6359.7"/>
		</defs>
		<use xlink:href="#SVGID_29_"  style="overflow:visible;fill:#000127;"/>
		<clipPath id="SVGID_24_">
			<use xlink:href="#SVGID_29_"  style="overflow:visible;"/>
		</clipPath>
	</g>
</g>
<g>
	<defs>
		<path id="SVGID_31_" d="M-569.3-70.6c-0.2,15.3,9,19.2,13.6,19.2c4.6,0,7.1-1.6,12-7.1v2.5c-4.1,5.3-8.1,7.3-14.1,7.3
			c-10.7,0-18.4-7.4-18.4-17.7c0-10.3,7.5-18.3,17.1-18.3c7.9,0,15.2,6.4,14.7,14.3L-569.3-70.6z M-550.7-72.2
			c0.3-7.5-4.8-10.6-9.1-10.6c-5.7,0-9.1,4.2-9.4,10.6H-550.7z"/>
	</defs>
	<use xlink:href="#SVGID_31_"  style="overflow:visible;fill-rule:evenodd;clip-rule:evenodd;fill:#000127;"/>
	<clipPath id="SVGID_26_">
		<use xlink:href="#SVGID_31_"  style="overflow:visible;"/>
	</clipPath>
	<g style="clip-path:url(#SVGID_26_);">
		<defs>
			<rect id="SVGID_33_" x="-1709" y="-164.6" width="2456.5" height="6359.7"/>
		</defs>
		<use xlink:href="#SVGID_33_"  style="overflow:visible;fill:#000127;"/>
		<clipPath id="SVGID_28_">
			<use xlink:href="#SVGID_33_"  style="overflow:visible;"/>
		</clipPath>
	</g>
</g>
<g>
	<defs>
		<path id="SVGID_35_" d="M-507.3-57.2c0,4.4,1,5.8,5.8,5.8v1.6h-18.2v-1.6c4.6,0,5.9-1.1,5.9-4.2v-17.8c0.3-4-2.8-7.5-6.8-7.8
			c-0.3,0-0.5,0-0.8,0c-3.4,0-6.4,2.1-9.7,6.6v16.6c0,5.2,0.7,6.5,5.8,6.5v1.6h-18v-1.6c4.5,0,5.7-0.4,5.7-6.5v-19.2
			c0-4.1-1.1-5-5.7-5v-1.7l10.6-1h1.6v6.8c4-4.6,8-6.8,12.3-6.8c5.7,0,11.5,4,11.5,12.2L-507.3-57.2z"/>
	</defs>
	<use xlink:href="#SVGID_35_"  style="overflow:visible;fill-rule:evenodd;clip-rule:evenodd;fill:#000127;"/>
	<clipPath id="SVGID_30_">
		<use xlink:href="#SVGID_35_"  style="overflow:visible;"/>
	</clipPath>
	<g style="clip-path:url(#SVGID_30_);">
		<defs>
			<rect id="SVGID_37_" x="-1709" y="-164.6" width="2456.5" height="6359.7"/>
		</defs>
		<use xlink:href="#SVGID_37_"  style="overflow:visible;fill:#000127;"/>
		<clipPath id="SVGID_32_">
			<use xlink:href="#SVGID_37_"  style="overflow:visible;"/>
		</clipPath>
	</g>
</g>
<g>
	<defs>
		<path id="SVGID_39_" d="M-465.6-57.2c0,4.4,1,5.8,5.8,5.8v1.6H-478v-1.6c4.6,0,5.9-1.1,5.9-4.2v-17.8c0.3-4-2.8-7.5-6.8-7.8
			c-0.3,0-0.5,0-0.8,0c-3.4,0-6.4,2.1-9.7,6.6v16.6c0,5.2,0.7,6.5,5.8,6.5v1.6h-18v-1.6c4.5,0,5.7-0.4,5.7-6.5v-19.2
			c0-4.1-1.1-5-5.7-5v-1.7l10.6-1.1h1.6v6.8c4.1-4.6,8-6.8,12.3-6.8c5.7,0,11.6,4,11.6,12.2V-57.2z"/>
	</defs>
	<use xlink:href="#SVGID_39_"  style="overflow:visible;fill-rule:evenodd;clip-rule:evenodd;fill:#000127;"/>
	<clipPath id="SVGID_34_">
		<use xlink:href="#SVGID_39_"  style="overflow:visible;"/>
	</clipPath>
	<g style="clip-path:url(#SVGID_34_);">
		<defs>
			<rect id="SVGID_41_" x="-1709" y="-164.6" width="2456.5" height="6359.7"/>
		</defs>
		<use xlink:href="#SVGID_41_"  style="overflow:visible;fill:#000127;"/>
		<clipPath id="SVGID_36_">
			<use xlink:href="#SVGID_41_"  style="overflow:visible;"/>
		</clipPath>
	</g>
</g>
</svg>
